<?xml version="1.0" encoding="UTF-8"?>
<svg version="1.1" xmlns="http://www.w3.org/2000/svg" width="512" height="512">
<path d="M0 0 C2.70057066 2.43031153 4.32877168 5.05677674 6.1171875 8.20703125 C6.71732666 9.25713379 7.31746582 10.30723633 7.93579102 11.38916016 C8.57572998 12.5188623 9.21566895 13.64856445 9.875 14.8125 C11.23338523 17.19271888 12.59531197 19.57090611 13.95703125 21.94921875 C14.47060432 22.8477356 14.47060432 22.8477356 14.99455261 23.7644043 C18.13250662 29.24870513 21.3365632 34.69213261 24.5625 40.125 C30.83863172 50.70894083 37.04213419 61.33429725 43.23388672 71.96777344 C46.15328022 76.9800581 49.07681168 81.98992787 52 87 C55.46590232 92.94078976 58.93138086 98.88182426 62.39453125 104.82421875 C68.74834042 115.72479044 75.11654957 126.61676957 81.5 137.5 C89.58588585 151.28573547 97.64162818 165.08890156 105.68847656 178.89746094 C112.61018665 190.77407819 119.54523025 202.64271958 126.5 214.5 C133.45044933 226.34991449 140.38105772 238.21125249 147.29833984 250.08056641 C150.19752025 255.05451179 153.09886195 260.02719628 156 265 C159.4658722 270.94080734 162.93138085 276.88182425 166.39453125 282.82421875 C172.48657108 293.2760682 178.5866697 303.72319868 184.70007324 314.16256714 C185.43773652 315.42243498 186.17512561 316.68246341 186.91223145 317.94265747 C190.26429737 323.67279671 193.61615657 329.40168469 197.078125 335.06640625 C197.50891357 335.7720874 197.93970215 336.47776855 198.38354492 337.20483398 C199.4586149 338.95580217 200.54325632 340.70088444 201.62890625 342.4453125 C203 345 203 345 203 348 C75.62 348 -51.76 348 -183 348 C-183 337.77 -183 327.54 -183 317 C-113.04 316.67 -43.08 316.34 29 316 C21.31957726 305.99989068 21.31957726 305.99989068 13.5625 296.0625 C12.63281059 294.88151192 11.70312314 293.70052229 10.7734375 292.51953125 C9.84898314 291.34633462 8.92450429 290.17315729 8 289 C1.36820714 280.58010452 -5.23250181 272.13690651 -11.80786133 263.67285156 C-15.35838894 259.10448985 -18.92068531 254.54583587 -22.5 250 C-27.29493471 243.91029064 -32.05358699 237.79279083 -36.80859375 231.671875 C-40.35890456 227.10386022 -43.92093702 222.54551618 -47.5 218 C-52.28606189 211.92155939 -57.04730378 205.82393038 -61.77563477 199.70043945 C-64.59037582 196.06162408 -67.43000927 192.45574488 -70.37109375 188.91796875 C-70.88994141 188.28568359 -71.40878906 187.65339844 -71.94335938 187.00195312 C-72.91263514 185.82488491 -73.8938178 184.6574835 -74.88867188 183.50195312 C-78.05054246 179.63426528 -78.05054246 179.63426528 -77.82617188 176.81860352 C-76.72590436 173.06488354 -75.1916644 169.54758597 -73.59765625 165.984375 C-73.24875839 165.19351501 -72.89986053 164.40265503 -72.54039001 163.58782959 C-71.38569177 160.97315913 -70.22404144 158.36163672 -69.0625 155.75 C-68.24621318 153.90453193 -67.43046679 152.05882472 -66.61523438 150.21289062 C-64.92022835 146.37602124 -63.22289479 142.54019425 -61.52392578 138.70507812 C-58.03306214 130.82040612 -54.57045229 122.92337085 -51.10787964 115.02624512 C-49.23995143 110.7668975 -47.36985792 106.50850074 -45.5 102.25 C-44.74998981 100.54167114 -43.9999898 98.83333781 -43.25 97.125 C-38.75 86.87500001 -38.75 86.87500001 -37.62519836 84.31297302 C-36.87451635 82.60307208 -36.12385517 80.89316199 -35.37321472 79.1832428 C-33.5088194 74.93631903 -31.64407312 70.68955008 -29.77856445 66.44311523 C-26.27670637 58.47086338 -22.77845842 50.49708104 -19.29196167 42.51809692 C-17.65307268 38.76799759 -16.01227693 35.01873391 -14.37133789 31.26953125 C-13.59304244 29.48983647 -12.81567134 27.70973711 -12.03930664 25.92919922 C-4.32282943 8.23315014 -4.32282943 8.23315014 0 0 Z M4 68 C-1.47889897 79.58533703 -6.70944386 91.27205766 -11.875 103 C-12.28097412 103.92077332 -12.68694824 104.84154663 -13.10522461 105.79022217 C-15.65098484 111.5643429 -18.19278869 117.34019381 -20.7322998 123.11706543 C-21.98368445 125.96289608 -23.23634903 128.8081604 -24.48925781 131.65332031 C-26.46010827 136.13025681 -28.42624858 140.60923385 -30.38873291 145.08984375 C-31.12226358 146.76326221 -31.8570606 148.43612622 -32.59320068 150.10839844 C-34.76990482 155.05571472 -36.89821869 160.0204103 -39 165 C-39.42619629 165.93658447 -39.85239258 166.87316895 -40.29150391 167.83813477 C-41.42710725 170.35616495 -41.42710725 170.35616495 -42 174 C-40.5496431 176.89743244 -39.51781942 178.41370972 -37.375 180.6875 C-36.32606631 181.90429609 -35.2779096 183.12176235 -34.23046875 184.33984375 C-33.68825684 184.94940918 -33.14604492 185.55897461 -32.58740234 186.18701172 C-30.16828608 188.94990889 -27.93381486 191.8463804 -25.6875 194.75 C-24.77541639 195.9119899 -23.86263619 197.07343331 -22.94921875 198.234375 C-19.01383446 203.25256022 -15.10449836 208.29100899 -11.19213867 213.32714844 C-7.64161106 217.89551015 -4.07931469 222.45416413 -0.5 227 C4.29493471 233.08970936 9.05358699 239.20720917 13.80859375 245.328125 C17.35890456 249.89613978 20.92093702 254.45448382 24.5 259 C29.29493471 265.08970936 34.05358699 271.20720917 38.80859375 277.328125 C42.78683283 282.44673458 46.78299052 287.55069958 50.79443359 292.64331055 C55.38901325 298.48193752 59.9433307 304.35182958 64.49414062 310.22460938 C65.35168945 311.3296582 65.35168945 311.3296582 66.2265625 312.45703125 C66.99347412 313.4466687 66.99347412 313.4466687 67.77587891 314.45629883 C68.91426567 315.9524992 68.91426567 315.9524992 70 317 C72.46444057 317.09500548 74.90074626 317.12557985 77.36547852 317.11352539 C78.52149567 317.11374443 78.52149567 317.11374443 79.7008667 317.1139679 C82.26024139 317.1132686 84.8195442 317.10547545 87.37890625 317.09765625 C89.14867615 317.09579213 90.91844656 317.0943682 92.68821716 317.09336853 C97.35551366 317.08954288 102.02277923 317.0797122 106.69006348 317.06866455 C111.44897035 317.05845144 116.20788221 317.05387113 120.96679688 317.04882812 C130.31121153 317.03808997 139.6556032 317.02101299 149 317 C147.68929348 313.6644053 146.28645663 310.55160472 144.5234375 307.4296875 C144.02602051 306.54756592 143.52860352 305.66544434 143.01611328 304.7565918 C142.4745459 303.8056665 141.93297852 302.85474121 141.375 301.875 C140.80378418 300.86800049 140.23256836 299.86100098 139.64404297 298.82348633 C134.56243465 289.90573513 129.33456701 281.07733128 124.08325195 272.25878906 C119.51451896 264.58250089 115.01377879 256.86997691 110.5625 249.125 C105.23070426 239.84921351 99.8544548 230.60119808 94.4375 221.375 C94.07958374 220.76534393 93.72166748 220.15568787 93.35290527 219.52755737 C91.92653308 217.09804312 90.50014238 214.66853974 89.0736084 212.23912048 C85.64273495 206.3947059 82.22577817 200.54220682 78.8125 194.6875 C78.2443457 193.71304932 77.67619141 192.73859863 77.09082031 191.73461914 C74.83064644 187.85749699 72.57109559 183.98001192 70.31152344 180.10253906 C63.38981335 168.22592181 56.45476975 156.35728042 49.5 144.5 C42.55819148 132.66481735 35.63645335 120.81808624 28.72802734 108.96337891 C26.92064445 105.86391387 25.11096693 102.76579763 23.30078125 99.66796875 C17.15042488 89.14013454 11.01311256 78.60698116 5 68 C4.67 68 4.34 68 4 68 Z " fill="#000000" transform="translate(309,95)"/>
<path d="M0 0 C1.13208865 3.39626594 0.96222565 3.73381125 -0.43676758 6.82080078 C-0.7798848 7.59082428 -1.12300201 8.36084778 -1.47651672 9.15420532 C-1.86196152 9.99277069 -2.24740631 10.83133606 -2.64453125 11.6953125 C-3.23871101 13.01902359 -3.23871101 13.01902359 -3.84489441 14.36947632 C-5.15877843 17.29196751 -6.48582386 20.20829648 -7.8125 23.125 C-8.73486039 25.17201436 -9.65607029 27.21954747 -10.57617188 29.26757812 C-11.99258909 32.42020397 -13.40962108 35.57253336 -14.83010864 38.72332764 C-18.91885 47.79493544 -22.93016722 56.89899522 -26.91464233 66.01678467 C-33.96941684 82.1575692 -41.10559366 98.26137178 -48.27050781 114.35351562 C-54.22013056 127.71841107 -60.13028717 141.09982447 -66 154.5 C-72.70525298 169.80765976 -79.47302296 185.08660499 -86.27050781 200.35351562 C-92.5879432 214.54464454 -98.85691385 228.7561585 -105.08837891 242.98522949 C-112.20554074 259.23373872 -119.40503867 275.44515875 -126.62890625 291.64648438 C-127.04011719 292.56959412 -127.45132813 293.49270386 -127.875 294.44378662 C-128.64370126 296.16929496 -129.41318159 297.89445653 -130.18359375 299.61920166 C-130.52648437 300.3890741 -130.869375 301.15894653 -131.22265625 301.95214844 C-131.51922119 302.61680115 -131.81578613 303.28145386 -132.12133789 303.96624756 C-133.12608015 306.29182528 -134.05914062 308.64785154 -135 311 C-185.16 311 -235.32 311 -287 311 C-286.05125225 307.205009 -284.89450486 304.7919383 -282.96484375 301.43359375 C-282.32861084 300.32226074 -281.69237793 299.21092773 -281.03686523 298.06591797 C-280.33729549 296.85631882 -279.63750094 295.64684967 -278.9375 294.4375 C-278.21340815 293.17867176 -277.48953462 291.91971792 -276.76586914 290.66064453 C-271.23745173 281.06130779 -265.60114036 271.52718447 -259.93334961 262.00952148 C-255.39144512 254.3757284 -250.92351902 246.70293429 -246.5 239 C-241.40241923 230.12466992 -236.23302799 221.29614254 -231 212.5 C-225.16033238 202.68236292 -219.409822 192.81798641 -213.71704102 182.91455078 C-208.99748213 174.71075793 -204.22942127 166.53663627 -199.4375 158.375 C-199.07958374 157.76534393 -198.72166748 157.15568787 -198.35290527 156.52755737 C-196.92653308 154.09804312 -195.50014238 151.66853974 -194.0736084 149.23912048 C-188.93443549 140.48465676 -183.82618479 131.71213695 -178.71484375 122.94140625 C-176.94646793 119.90817848 -175.17656577 116.87584591 -173.40625 113.84375 C-172.81223389 112.82410156 -172.21821777 111.80445313 -171.60620117 110.75390625 C-170.41850309 108.72348732 -169.22343916 106.69735767 -168.02075195 104.67578125 C-165.296558 100.07583183 -162.70950676 95.50320186 -160.44921875 90.65625 C-154.15298483 77.57664119 -146.54372666 72.97322496 -133.34765625 67.49755859 C-129.28826327 65.68160786 -125.39001893 63.62943756 -121.46875 61.53515625 C-113.70373785 57.39306116 -105.87676085 53.39423334 -98 49.46875 C-96.86236206 48.90156754 -95.72472412 48.33438507 -94.5526123 47.75001526 C-89.85661564 45.41111213 -85.15873332 43.0760094 -80.4609375 40.74072266 C-68.51443278 34.7989259 -56.58688487 28.84163389 -44.80290222 22.58267212 C-35.88541658 17.85570765 -26.84855442 13.36981742 -17.8125 8.875 C-16.06826366 8.00540029 -14.32412269 7.13560927 -12.58007812 6.265625 C-8.38780707 4.17489185 -4.19428118 2.08669746 0 0 Z M-69.81005859 70.27563477 C-71.3133522 71.02255333 -71.3133522 71.02255333 -72.84701538 71.78456116 C-73.93648468 72.33132004 -75.02595398 72.87807892 -76.1484375 73.44140625 C-77.83279404 74.28214943 -77.83279404 74.28214943 -79.55117798 75.13987732 C-81.93796038 76.33258624 -84.32386188 77.52689472 -86.70849609 78.72387695 C-89.13313747 79.9407149 -91.55950083 81.15398927 -93.98779297 82.36352539 C-97.50186192 84.11431306 -101.01305148 85.87074762 -104.5234375 87.62890625 C-105.59266449 88.16149551 -106.66189148 88.69408478 -107.76351929 89.24281311 C-123.87607579 96.81169484 -123.87607579 96.81169484 -135 110 C-136.17434838 112.01830527 -137.3488377 114.03652854 -138.5234375 116.0546875 C-139.47522201 117.73567473 -140.42690804 119.41672161 -141.37478638 121.09991455 C-143.12261318 124.20179385 -144.88291246 127.29656269 -146.64453125 130.390625 C-147.18656441 131.34269333 -147.18656441 131.34269333 -147.73954773 132.31399536 C-151.43895678 138.79575884 -155.24232256 145.21366417 -159.0625 151.625 C-164.27655091 160.37856247 -169.42606648 169.16446063 -174.5 178 C-179.59758077 186.87533008 -184.76697201 195.70385746 -190 204.5 C-195.83144369 214.30381101 -201.57442654 224.15397715 -207.25878906 234.04370117 C-212.21415966 242.65794866 -217.22152635 251.24076385 -222.25 259.8125 C-222.80299271 260.75545929 -222.80299271 260.75545929 -223.36715698 261.71746826 C-229.76272726 272.62085597 -229.76272726 272.62085597 -231.71777344 275.74487305 C-233.16475765 277.85740775 -233.16475765 277.85740775 -233 280 C-207.59 280 -182.18 280 -156 280 C-151.67337184 270.72865394 -147.36579917 261.46207305 -143.1875 252.125 C-142.9195462 251.52695557 -142.65159241 250.92891113 -142.3755188 250.31274414 C-136.95214097 238.20331829 -131.62230956 226.05313819 -126.2984314 213.89971924 C-120.24386939 200.07965943 -114.13769262 186.28332853 -108 172.5 C-101.18825986 157.20290457 -94.42149671 141.88710609 -87.71148682 126.54510498 C-83.5542821 117.04090129 -79.36320916 107.55379692 -75.09765625 98.09765625 C-74.49921654 96.76913383 -74.49921654 96.76913383 -73.88868713 95.41377258 C-71.97578605 91.16841328 -70.05710828 86.92584261 -68.12817383 82.68774414 C-67.44721695 81.17994573 -66.76646004 79.67205699 -66.0859375 78.1640625 C-65.77129044 77.47864883 -65.45664337 76.79323517 -65.13246155 76.08705139 C-63.83711279 73.20375317 -63 71.20033704 -63 68 C-65.72989584 68 -67.36435335 69.05498541 -69.81005859 70.27563477 Z " fill="#000000" transform="translate(287,69)"/>
</svg>
